<svg xmlns="http://www.w3.org/2000/svg" width="39.558" height="59.397" viewBox="0 0 39.558 59.397" fill="none">
  <path d="M 4.434 0 C 4.864 0.029 5.343 1.537 5.526 1.964 C 6.803 4.932 7.878 8.126 9.21 11.056 C 11.577 10.61 13.029 11.736 14.015 13.803 C 18.782 13.251 23.556 12.948 28.317 12.893 C 31.563 12.855 34.886 12.87 38.043 13.513 C 38.592 13.625 39.46 13.847 39.558 14.519 C 39.178 15.428 36.349 18.546 35.589 19.436 L 29.001 27.148 L 23.666 33.418 C 22.953 34.255 21.834 35.657 21.129 36.394 C 21.183 37.293 21.117 38.386 21.098 39.307 L 21.005 44.173 L 20.804 55.359 C 22.671 55.306 26.266 54.993 27.625 56.259 C 28.789 57.524 26.872 58.534 25.895 58.723 C 22.403 59.396 18.686 59.433 15.204 59.381 C 14.098 59.365 10.747 59.417 11.064 57.748 C 11.126 57.424 11.134 57.124 11.431 56.91 C 12.748 55.871 16.941 55.302 18.474 55.223 C 18.382 53.989 18.468 52.319 18.45 51.039 L 18.322 40.528 C 18.307 39.594 18.4 37.298 18.265 36.521 C 17.734 35.878 16.969 35.137 16.375 34.537 L 13.416 31.544 L 4.429 22.35 L 1.703 19.582 C 1.379 19.253 0.061 18.015 0 17.61 C 0.04 17.343 0.15 17.22 0.318 17.077 L 0.506 16.921 C 0.59 16.853 0.682 16.787 0.779 16.724 C 0.865 16.667 0.955 16.613 1.05 16.56 C 1.453 16.334 1.931 16.137 2.439 15.963 C 2.949 15.789 3.489 15.637 4.017 15.502 C 4.808 15.299 5.573 15.131 6.163 14.977 C 6.245 13.882 6.633 13.092 7.295 12.22 C 6.833 11.519 5.926 9.576 5.502 8.729 L 2.185 2.09 C 2.685 1.574 3.898 0.213 4.434 0 Z M 18.472 55.782 C 17.294 55.919 12.098 56.308 11.78 57.596 C 11.788 57.827 11.762 58.165 11.946 58.318 C 13.175 59.335 23.878 58.656 25.714 58.244 C 26.273 58.118 26.766 57.853 27.232 57.493 C 27.184 56.812 27.023 56.424 26.373 56.167 C 24.341 55.771 22.901 55.908 20.801 55.919 C 20.781 56.469 20.757 56.894 20.809 57.439 C 18.653 57.649 18.488 58.073 18.472 55.782 Z M 19.104 52.037 C 19.119 53.519 19.084 55.034 19.11 56.505 C 19.109 56.786 19.068 56.772 19.2 56.978 C 19.439 57.103 19.815 57.018 20.111 56.988 L 20.327 45.157 C 20.387 43.343 20.42 41.529 20.428 39.717 C 20.433 39.308 20.534 37.462 20.395 37.302 C 20.22 37.505 20.057 37.734 19.819 37.828 C 19.56 37.824 19.531 37.826 19.336 37.597 C 19.214 37.451 19.094 37.304 18.976 37.155 L 19.104 52.037 Z M 38.826 14.526 C 34.86 12.335 18.978 13.639 14.147 14.138 C 14.463 15.799 14.462 17.187 13.394 18.682 C 17.795 18.576 22.205 18.262 26.608 17.741 C 30.037 17.33 33.485 16.803 36.86 15.875 L 36.835 16.14 L 36.835 16.141 C 34.756 16.824 32.116 17.3 29.95 17.639 C 26.338 18.189 22.716 18.586 19.095 18.829 C 17.569 18.933 14.56 18.999 12.931 19.21 C 12.82 19.224 12.742 19.408 12.7 19.519 C 12.707 19.805 12.842 20.025 12.963 20.282 C 13.268 20.266 13.879 20.155 14.221 20.109 C 15.114 19.994 16.008 19.889 16.902 19.796 C 20.767 19.418 24.696 19.229 28.535 19.415 C 29.484 19.461 31.417 19.589 32.071 20.349 C 32.328 20.647 32.142 20.944 31.905 21.223 C 31.386 21.833 30.87 22.451 30.361 23.076 L 26.768 27.543 L 22.257 33.15 C 21.835 33.672 20.35 35.616 19.892 35.931 C 19.454 35.911 16.05 32.033 15.497 31.439 L 10.581 26.177 C 9.992 25.545 7.493 23.019 7.257 22.265 C 6.936 21.237 10.983 20.874 11.28 20.416 C 11.002 20.145 10.073 20.273 9.588 20.177 C 8.865 20.087 8.006 19.227 7.353 19.169 C 5.377 18.995 3.498 18.961 1.555 18.525 C 2.316 19.409 3.331 20.396 4.155 21.236 L 8.557 25.716 C 12.229 29.458 15.918 33.338 19.636 37.017 C 24.148 31.908 28.668 26.461 33.107 21.256 L 36.112 17.744 C 36.372 17.441 37.219 16.492 37.537 16.04 L 37.638 15.88 L 36.835 16.14 L 36.86 15.876 C 37.13 15.781 37.406 15.706 37.68 15.628 L 37.68 15.627 C 38.197 15.413 38.488 14.987 38.826 14.526 Z M 30.447 21.873 C 29.57 22.055 28.694 22.272 27.816 22.431 C 24.992 22.922 22.155 23.257 19.318 23.435 C 17.639 23.548 15.891 23.519 14.273 23.627 C 15.063 25.298 16.005 27.852 16.703 29.622 C 16.458 29.692 16.262 29.748 16.013 29.798 C 15.665 29.16 15.324 28.49 15.01 27.831 C 14.335 26.415 13.564 25.032 12.904 23.61 L 11.876 23.585 C 10.792 23.527 9.999 23.507 8.947 23.276 C 9.436 23.935 10.156 24.669 10.725 25.277 L 13.391 28.13 C 15.481 30.376 17.743 32.97 19.89 35.123 C 20.71 34.091 30.401 22.136 30.456 21.918 L 30.447 21.873 Z M 21.824 26.786 C 22.206 25.439 24.269 25.502 24.681 26.646 C 25.009 27.558 24.315 28.051 23.598 28.377 C 23.379 28.407 23.192 28.439 22.973 28.44 C 22.915 28.43 22.857 28.418 22.8 28.406 C 22.027 28.241 21.565 27.647 21.824 26.786 Z M 24.005 27.217 C 23.882 24.792 21.467 26.87 22.871 28.056 C 22.903 28.082 22.935 28.108 22.968 28.133 C 23.196 28.143 23.279 28.106 23.5 28.042 C 23.715 27.853 24.019 27.508 24.005 27.217 Z M 25.448 24.996 C 24.39 24.18 25.325 23.374 26.417 23.572 C 27.429 24.356 26.484 25.209 25.448 24.996 Z M 11.687 21.246 C 10.885 21.382 8.809 21.736 8.157 22.242 L 8.095 22.372 C 8.305 22.671 8.791 22.676 9.172 22.733 C 10.392 22.927 11.38 22.895 12.569 22.99 C 12.288 22.407 12.008 21.803 11.687 21.246 Z M 31.445 20.412 C 27.082 19.654 22.097 20.01 17.613 20.396 C 16.308 20.509 14.491 20.707 13.216 20.938 L 13.688 22.084 C 13.809 22.384 13.914 22.636 14.004 22.95 C 16.567 23.203 29.611 22.062 31.526 20.63 L 31.577 20.511 C 31.522 20.46 31.509 20.435 31.445 20.412 Z M 11.851 19.116 C 11.472 19.127 8.93 19.142 8.781 19.227 L 8.83 19.341 C 9.42 19.603 9.883 19.794 10.567 19.76 C 10.923 19.742 11.75 19.568 11.921 19.201 L 11.851 19.116 Z M 11.129 11.588 C 7.509 10.285 5.485 15.675 8.063 18.687 C 8.456 18.706 8.926 18.743 9.313 18.741 C 10.171 18.731 11.833 18.772 12.624 18.665 C 12.759 18.47 12.919 18.244 13.036 18.037 C 14.329 15.756 13.364 12.512 11.129 11.588 Z M 6.088 15.335 C 4.614 15.714 1.862 16.186 0.652 17.058 C 0.429 18.437 6.135 18.585 7.175 18.672 C 6.32 17.423 6.243 16.843 6.088 15.335 Z M 11.457 12.192 C 12.852 12.79 12.769 14.834 10.935 14.724 C 9.294 14.087 9.646 11.982 11.457 12.192 Z M 11.181 12.562 C 10.401 13.042 10.412 13.993 11.147 14.358 C 11.88 13.859 11.869 12.951 11.181 12.562 Z M 2.921 2.251 C 3.385 3.16 7.586 11.583 7.704 11.664 L 8.547 11.161 C 8.118 10.099 4.524 1 4.311 0.808 L 2.921 2.251 Z" fill="currentColor" fill-rule="nonzero"></path>
</svg>